<mxfile host="app.diagrams.net" agent="Mozilla/5.0 (Windows NT 10.0; Win64; x64) AppleWebKit/537.36 (KHTML, like Gecko) Chrome/130.0.0.0 Safari/537.36 Edg/130.0.0.0" version="24.8.3">
  <diagram name="第 1 页" id="mpFojMKfhO2aEaeH8_-7">
    <mxGraphModel dx="786" dy="469" grid="1" gridSize="10" guides="1" tooltips="1" connect="1" arrows="1" fold="1" page="1" pageScale="1" pageWidth="827" pageHeight="1169" math="0" shadow="0">
      <root>
        <mxCell id="0" />
        <mxCell id="1" parent="0" />
        <mxCell id="oD6xp6yWbS0XxIpIfpNg-2" value="MultiplicationTable" style="rounded=1;whiteSpace=wrap;html=1;rotation=0;textShadow=1;horizontal=1;" vertex="1" parent="1">
          <mxGeometry x="170" y="70" width="120" height="300" as="geometry" />
        </mxCell>
        <mxCell id="oD6xp6yWbS0XxIpIfpNg-3" value="" style="endArrow=classic;html=1;rounded=0;" edge="1" parent="1">
          <mxGeometry width="50" height="50" relative="1" as="geometry">
            <mxPoint x="70" y="150" as="sourcePoint" />
            <mxPoint x="160" y="150" as="targetPoint" />
          </mxGeometry>
        </mxCell>
        <mxCell id="oD6xp6yWbS0XxIpIfpNg-5" value="start:number&lt;div&gt;end:number&lt;/div&gt;" style="text;strokeColor=none;align=center;fillColor=none;html=1;verticalAlign=middle;whiteSpace=wrap;rounded=0;" vertex="1" parent="1">
          <mxGeometry x="90" y="110" width="60" height="30" as="geometry" />
        </mxCell>
        <mxCell id="oD6xp6yWbS0XxIpIfpNg-6" value="multiplicationTable&lt;div&gt;:string&lt;/div&gt;" style="text;strokeColor=none;align=center;fillColor=none;html=1;verticalAlign=middle;whiteSpace=wrap;rounded=0;" vertex="1" parent="1">
          <mxGeometry x="90" y="321" width="60" height="30" as="geometry" />
        </mxCell>
        <mxCell id="oD6xp6yWbS0XxIpIfpNg-7" value="" style="endArrow=classic;html=1;rounded=0;" edge="1" parent="1">
          <mxGeometry width="50" height="50" relative="1" as="geometry">
            <mxPoint x="170" y="311" as="sourcePoint" />
            <mxPoint x="60" y="311" as="targetPoint" />
          </mxGeometry>
        </mxCell>
        <mxCell id="oD6xp6yWbS0XxIpIfpNg-8" value="isValidInput" style="rounded=1;whiteSpace=wrap;html=1;rotation=0;textShadow=1;horizontal=1;" vertex="1" parent="1">
          <mxGeometry x="400" y="80" width="120" height="100" as="geometry" />
        </mxCell>
        <mxCell id="oD6xp6yWbS0XxIpIfpNg-10" value="" style="endArrow=classic;html=1;rounded=0;exitX=1.019;exitY=0.103;exitDx=0;exitDy=0;exitPerimeter=0;" edge="1" parent="1" source="oD6xp6yWbS0XxIpIfpNg-2">
          <mxGeometry width="50" height="50" relative="1" as="geometry">
            <mxPoint x="300" y="100" as="sourcePoint" />
            <mxPoint x="400" y="100" as="targetPoint" />
          </mxGeometry>
        </mxCell>
        <mxCell id="oD6xp6yWbS0XxIpIfpNg-11" value="start:number&lt;div&gt;end:number&lt;/div&gt;" style="text;strokeColor=none;align=center;fillColor=none;html=1;verticalAlign=middle;whiteSpace=wrap;rounded=0;" vertex="1" parent="1">
          <mxGeometry x="320" y="60" width="60" height="30" as="geometry" />
        </mxCell>
        <mxCell id="oD6xp6yWbS0XxIpIfpNg-12" value="boolean" style="text;strokeColor=none;align=center;fillColor=none;html=1;verticalAlign=middle;whiteSpace=wrap;rounded=0;" vertex="1" parent="1">
          <mxGeometry x="320" y="121" width="60" height="30" as="geometry" />
        </mxCell>
        <mxCell id="oD6xp6yWbS0XxIpIfpNg-13" value="" style="endArrow=classic;html=1;rounded=0;" edge="1" parent="1">
          <mxGeometry width="50" height="50" relative="1" as="geometry">
            <mxPoint x="400" y="120" as="sourcePoint" />
            <mxPoint x="290" y="120" as="targetPoint" />
          </mxGeometry>
        </mxCell>
        <mxCell id="oD6xp6yWbS0XxIpIfpNg-14" value="&lt;pre&gt;generateMulti&lt;/pre&gt;&lt;pre&gt;plicationTable&lt;/pre&gt;" style="rounded=1;whiteSpace=wrap;html=1;rotation=0;textShadow=1;horizontal=1;" vertex="1" parent="1">
          <mxGeometry x="400" y="192" width="120" height="140" as="geometry" />
        </mxCell>
        <mxCell id="oD6xp6yWbS0XxIpIfpNg-15" value="isStartSmallerThanEnd" style="rounded=1;whiteSpace=wrap;html=1;rotation=0;textShadow=1;horizontal=1;" vertex="1" parent="1">
          <mxGeometry x="630" y="80" width="150" height="30" as="geometry" />
        </mxCell>
        <mxCell id="oD6xp6yWbS0XxIpIfpNg-16" value="start:number&lt;div&gt;end:number&lt;/div&gt;" style="text;strokeColor=none;align=center;fillColor=none;html=1;verticalAlign=middle;whiteSpace=wrap;rounded=0;" vertex="1" parent="1">
          <mxGeometry x="550" y="60" width="60" height="30" as="geometry" />
        </mxCell>
        <mxCell id="oD6xp6yWbS0XxIpIfpNg-17" value="boolean" style="text;strokeColor=none;align=center;fillColor=none;html=1;verticalAlign=middle;whiteSpace=wrap;rounded=0;" vertex="1" parent="1">
          <mxGeometry x="545" y="95" width="60" height="30" as="geometry" />
        </mxCell>
        <mxCell id="oD6xp6yWbS0XxIpIfpNg-18" value="" style="endArrow=classic;html=1;rounded=0;" edge="1" parent="1">
          <mxGeometry width="50" height="50" relative="1" as="geometry">
            <mxPoint x="630" y="101" as="sourcePoint" />
            <mxPoint x="520" y="101" as="targetPoint" />
          </mxGeometry>
        </mxCell>
        <mxCell id="oD6xp6yWbS0XxIpIfpNg-19" value="" style="endArrow=classic;html=1;rounded=0;" edge="1" parent="1">
          <mxGeometry width="50" height="50" relative="1" as="geometry">
            <mxPoint x="520" y="90" as="sourcePoint" />
            <mxPoint x="630" y="90" as="targetPoint" />
          </mxGeometry>
        </mxCell>
        <mxCell id="oD6xp6yWbS0XxIpIfpNg-20" value="isValidRange" style="rounded=1;whiteSpace=wrap;html=1;rotation=0;textShadow=1;horizontal=1;" vertex="1" parent="1">
          <mxGeometry x="630" y="141" width="150" height="30" as="geometry" />
        </mxCell>
        <mxCell id="oD6xp6yWbS0XxIpIfpNg-21" value="start:number&lt;div&gt;end:number&lt;/div&gt;" style="text;strokeColor=none;align=center;fillColor=none;html=1;verticalAlign=middle;whiteSpace=wrap;rounded=0;" vertex="1" parent="1">
          <mxGeometry x="550" y="121" width="60" height="30" as="geometry" />
        </mxCell>
        <mxCell id="oD6xp6yWbS0XxIpIfpNg-22" value="boolean" style="text;strokeColor=none;align=center;fillColor=none;html=1;verticalAlign=middle;whiteSpace=wrap;rounded=0;" vertex="1" parent="1">
          <mxGeometry x="540" y="162" width="60" height="30" as="geometry" />
        </mxCell>
        <mxCell id="oD6xp6yWbS0XxIpIfpNg-23" value="" style="endArrow=classic;html=1;rounded=0;" edge="1" parent="1">
          <mxGeometry width="50" height="50" relative="1" as="geometry">
            <mxPoint x="630" y="162" as="sourcePoint" />
            <mxPoint x="520" y="162" as="targetPoint" />
          </mxGeometry>
        </mxCell>
        <mxCell id="oD6xp6yWbS0XxIpIfpNg-24" value="" style="endArrow=classic;html=1;rounded=0;" edge="1" parent="1">
          <mxGeometry width="50" height="50" relative="1" as="geometry">
            <mxPoint x="520" y="151" as="sourcePoint" />
            <mxPoint x="630" y="151" as="targetPoint" />
          </mxGeometry>
        </mxCell>
        <mxCell id="oD6xp6yWbS0XxIpIfpNg-25" value="start:number&lt;div&gt;end:number&lt;/div&gt;" style="text;strokeColor=none;align=center;fillColor=none;html=1;verticalAlign=middle;whiteSpace=wrap;rounded=0;" vertex="1" parent="1">
          <mxGeometry x="320" y="210" width="60" height="30" as="geometry" />
        </mxCell>
        <mxCell id="oD6xp6yWbS0XxIpIfpNg-26" value="string[][]" style="text;strokeColor=none;align=center;fillColor=none;html=1;verticalAlign=middle;whiteSpace=wrap;rounded=0;" vertex="1" parent="1">
          <mxGeometry x="310" y="251" width="60" height="30" as="geometry" />
        </mxCell>
        <mxCell id="oD6xp6yWbS0XxIpIfpNg-27" value="" style="endArrow=classic;html=1;rounded=0;" edge="1" parent="1">
          <mxGeometry width="50" height="50" relative="1" as="geometry">
            <mxPoint x="400" y="251" as="sourcePoint" />
            <mxPoint x="290" y="251" as="targetPoint" />
          </mxGeometry>
        </mxCell>
        <mxCell id="oD6xp6yWbS0XxIpIfpNg-28" value="" style="endArrow=classic;html=1;rounded=0;" edge="1" parent="1">
          <mxGeometry width="50" height="50" relative="1" as="geometry">
            <mxPoint x="290" y="240" as="sourcePoint" />
            <mxPoint x="400" y="240" as="targetPoint" />
          </mxGeometry>
        </mxCell>
        <mxCell id="oD6xp6yWbS0XxIpIfpNg-29" value="generateMulti&lt;div&gt;plicationRow&lt;/div&gt;" style="rounded=1;whiteSpace=wrap;html=1;rotation=0;textShadow=1;horizontal=1;" vertex="1" parent="1">
          <mxGeometry x="640" y="192" width="110" height="140" as="geometry" />
        </mxCell>
        <mxCell id="oD6xp6yWbS0XxIpIfpNg-30" value="start:number&lt;div&gt;rowMultiplier:number&lt;/div&gt;" style="text;strokeColor=none;align=center;fillColor=none;html=1;verticalAlign=middle;whiteSpace=wrap;rounded=0;" vertex="1" parent="1">
          <mxGeometry x="550" y="205" width="60" height="30" as="geometry" />
        </mxCell>
        <mxCell id="oD6xp6yWbS0XxIpIfpNg-31" value="string[]" style="text;strokeColor=none;align=center;fillColor=none;html=1;verticalAlign=middle;whiteSpace=wrap;rounded=0;" vertex="1" parent="1">
          <mxGeometry x="540" y="251" width="60" height="30" as="geometry" />
        </mxCell>
        <mxCell id="oD6xp6yWbS0XxIpIfpNg-32" value="" style="endArrow=classic;html=1;rounded=0;" edge="1" parent="1">
          <mxGeometry width="50" height="50" relative="1" as="geometry">
            <mxPoint x="640" y="251" as="sourcePoint" />
            <mxPoint x="520" y="251" as="targetPoint" />
          </mxGeometry>
        </mxCell>
        <mxCell id="oD6xp6yWbS0XxIpIfpNg-33" value="" style="endArrow=classic;html=1;rounded=0;" edge="1" parent="1">
          <mxGeometry width="50" height="50" relative="1" as="geometry">
            <mxPoint x="760" y="233.82" as="sourcePoint" />
            <mxPoint x="880" y="233.82" as="targetPoint" />
          </mxGeometry>
        </mxCell>
        <mxCell id="oD6xp6yWbS0XxIpIfpNg-35" value="generateMulti&lt;div&gt;plicationItem&lt;/div&gt;" style="rounded=1;whiteSpace=wrap;html=1;rotation=0;textShadow=1;horizontal=1;" vertex="1" parent="1">
          <mxGeometry x="890" y="192" width="110" height="140" as="geometry" />
        </mxCell>
        <mxCell id="oD6xp6yWbS0XxIpIfpNg-36" value="multiplierRow:number,&lt;div&gt;multiplierColumn:number&lt;/div&gt;" style="text;strokeColor=none;align=center;fillColor=none;html=1;verticalAlign=middle;whiteSpace=wrap;rounded=0;" vertex="1" parent="1">
          <mxGeometry x="790" y="205" width="60" height="30" as="geometry" />
        </mxCell>
        <mxCell id="oD6xp6yWbS0XxIpIfpNg-37" value="string" style="text;strokeColor=none;align=center;fillColor=none;html=1;verticalAlign=middle;whiteSpace=wrap;rounded=0;" vertex="1" parent="1">
          <mxGeometry x="780" y="251" width="60" height="30" as="geometry" />
        </mxCell>
        <mxCell id="oD6xp6yWbS0XxIpIfpNg-38" value="" style="endArrow=classic;html=1;rounded=0;" edge="1" parent="1">
          <mxGeometry width="50" height="50" relative="1" as="geometry">
            <mxPoint x="880" y="251" as="sourcePoint" />
            <mxPoint x="760" y="251" as="targetPoint" />
          </mxGeometry>
        </mxCell>
        <mxCell id="oD6xp6yWbS0XxIpIfpNg-40" value="" style="endArrow=classic;html=1;rounded=0;" edge="1" parent="1">
          <mxGeometry width="50" height="50" relative="1" as="geometry">
            <mxPoint x="520" y="233.82" as="sourcePoint" />
            <mxPoint x="640" y="233.82" as="targetPoint" />
          </mxGeometry>
        </mxCell>
      </root>
    </mxGraphModel>
  </diagram>
</mxfile>
